{
  "accessors": [
    {
      "bufferView": 1,
      "componentType": 5126,
      "count": 65532,
      "max": [
        63.5001335144043,
        97.06133270263672,
        57.71400451660156
      ],
      "min": [
        -62.932403564453125,
        -54.241539001464844,
        -57.714515686035156
      ],
      "type": "VEC3"
    },
    {
      "bufferView": 1,
      "byteOffset": 786384,
      "componentType": 5126,
      "count": 65532,
      "max": [
        1.0,
        0.9998728036880493,
        0.999998152256012
      ],
      "min": [
        -1.0,
        -0.9999917149543762,
        -0.999970018863678
      ],
      "type": "VEC3"
    },
    {
      "bufferView": 0,
      "componentType": 5125,
      "count": 309519,
      "type": "SCALAR"
    },
    {
      "bufferView": 1,
      "byteOffset": 1572768,
      "componentType": 5126,
      "count": 65532,
      "max": [
        60.3544921875,
        97.07891845703125,
        39.24457931518555
      ],
      "min": [
        -63.01499938964844,
        -54.0030632019043,
        -50.451576232910156
      ],
      "type": "VEC3"
    },
    {
      "bufferView": 1,
      "byteOffset": 2359152,
      "componentType": 5126,
      "count": 65532,
      "max": [
        0.9999851584434509,
        0.9999898672103882,
        0.999998152256012
      ],
      "min": [
        -0.9999683499336243,
        -0.9999873638153076,
        -0.9999850988388062
      ],
      "type": "VEC3"
    },
    {
      "bufferView": 0,
      "byteOffset": 1238076,
      "componentType": 5125,
      "count": 320361,
      "type": "SCALAR"
    },
    {
      "bufferView": 1,
      "byteOffset": 3145536,
      "componentType": 5126,
      "count": 65532,
      "max": [
        63.472999572753906,
        97.0804214477539,
        57.682308197021484
      ],
      "min": [
        -63.5001220703125,
        -54.0030632019043,
        -57.03437423706055
      ],
      "type": "VEC3"
    },
    {
      "bufferView": 1,
      "byteOffset": 3931920,
      "componentType": 5126,
      "count": 65532,
      "max": [
        0.9999903440475464,
        0.999997079372406,
        0.9999746680259705
      ],
      "min": [
        -0.9999885559082031,
        -0.9999781250953674,
        -0.9999822974205017
      ],
      "type": "VEC3"
    },
    {
      "bufferView": 0,
      "byteOffset": 2519520,
      "componentType": 5125,
      "count": 292059,
      "type": "SCALAR"
    },
    {
      "bufferView": 1,
      "byteOffset": 4718304,
      "componentType": 5126,
      "count": 40865,
      "max": [
        63.5001335144043,
        97.0391845703125,
        57.46316146850586
      ],
      "min": [
        -63.440284729003906,
        -54.241539001464844,
        -57.61846923828125
      ],
      "type": "VEC3"
    },
    {
      "bufferView": 1,
      "byteOffset": 5208684,
      "componentType": 5126,
      "count": 40865,
      "max": [
        0.9997745752334595,
        0.9999129772186279,
        0.999940812587738
      ],
      "min": [
        -1.0,
        -0.9999628067016602,
        -0.9999822974205017
      ],
      "type": "VEC3"
    },
    {
      "bufferView": 0,
      "byteOffset": 3687756,
      "componentType": 5125,
      "count": 115893,
      "type": "SCALAR"
    }
  ],
  "asset": {
    "extras": {
      "author": "3D graphics 101 (https://sketchfab.com/3dgraphics)",
      "license": "CC-BY-NC-4.0 (http://creativecommons.org/licenses/by-nc/4.0/)",
      "source": "https://sketchfab.com/3d-models/armadillo-vripped-reconstruction-a3620cb3f4914a9c89e1c1ab3ae2eced",
      "title": "Armadillo (Vripped reconstruction)"
    },
    "generator": "Sketchfab-12.64.0",
    "version": "2.0"
  },
  "bufferViews": [
    {
      "buffer": 0,
      "byteLength": 4151328,
      "name": "floatBufferViews",
      "target": 34963
    },
    {
      "buffer": 0,
      "byteLength": 5699064,
      "byteOffset": 4151328,
      "byteStride": 12,
      "name": "floatBufferViews",
      "target": 34962
    }
  ],
  "buffers": [
    {
      "byteLength": 9850392,
      "uri": "scene.bin"
    }
  ],
  "materials": [
    {
      "doubleSided": true,
      "name": "Scene_-_Root",
      "pbrMetallicRoughness": {
        "baseColorFactor": [
          0.5,
          0.5,
          0.5,
          1.0
        ],
        "metallicFactor": 0.0,
        "roughnessFactor": 0.9
      }
    }
  ],
  "meshes": [
    {
      "name": "Object_0",
      "primitives": [
        {
          "attributes": {
            "NORMAL": 1,
            "POSITION": 0
          },
          "indices": 2,
          "material": 0,
          "mode": 4
        }
      ]
    },
    {
      "name": "Object_1",
      "primitives": [
        {
          "attributes": {
            "NORMAL": 4,
            "POSITION": 3
          },
          "indices": 5,
          "material": 0,
          "mode": 4
        }
      ]
    },
    {
      "name": "Object_2",
      "primitives": [
        {
          "attributes": {
            "NORMAL": 7,
            "POSITION": 6
          },
          "indices": 8,
          "material": 0,
          "mode": 4
        }
      ]
    },
    {
      "name": "Object_3",
      "primitives": [
        {
          "attributes": {
            "NORMAL": 10,
            "POSITION": 9
          },
          "indices": 11,
          "material": 0,
          "mode": 4
        }
      ]
    }
  ],
  "nodes": [
    {
      "children": [
        1
      ],
      "matrix": [
        1.0,
        0.0,
        0.0,
        0.0,
        0.0,
        1.0,
        2.220446049250313e-16,
        0.0,
        0.0,
        -2.220446049250313e-16,
        1.0,
        0.0,
        0.0,
        0.0,
        0.0,
        1.0
      ],
      "name": "Sketchfab_model"
    },
    {
      "children": [
        2,
        3,
        4,
        5
      ],
      "name": "Geode"
    },
    {
      "mesh": 0,
      "name": "Object_2"
    },
    {
      "mesh": 1,
      "name": "Object_3"
    },
    {
      "mesh": 2,
      "name": "Object_4"
    },
    {
      "mesh": 3,
      "name": "Object_5"
    }
  ],
  "scene": 0,
  "scenes": [
    {
      "name": "Sketchfab_Scene",
      "nodes": [
        0
      ]
    }
  ]
}
